<svg xmlns="http://www.w3.org/2000/svg" width="360" height="136" viewBox="0 0 360 136" role="img"><title>02 / FLIGHT DECK</title><rect x=".5" y=".5" width="359" height="135" rx="4" fill="#081321" stroke="#253952"/><path d="M0 1H360" stroke="#cf8efc" stroke-width="2"/><rect x="38" y="30" width="3" height="3" fill="#cf8efc"/><rect x="38" y="33" width="3" height="3" fill="#cf8efc"/><rect x="41" y="33" width="3" height="3" fill="#cf8efc"/><rect x="38" y="36" width="3" height="3" fill="#cf8efc"/><rect x="41" y="36" width="3" height="3" fill="#cf8efc"/><rect x="38" y="39" width="3" height="3" fill="#cf8efc"/><rect x="41" y="39" width="3" height="3" fill="#cf8efc"/><rect x="29" y="42" width="3" height="3" fill="#cf8efc"/><rect x="32" y="42" width="3" height="3" fill="#cf8efc"/><rect x="35" y="42" width="3" height="3" fill="#cf8efc"/><rect x="38" y="42" width="3" height="3" fill="#cf8efc"/><rect x="41" y="42" width="3" height="3" fill="#cf8efc"/><rect x="44" y="42" width="3" height="3" fill="#cf8efc"/><rect x="47" y="42" width="3" height="3" fill="#cf8efc"/><rect x="50" y="42" width="3" height="3" fill="#cf8efc"/><rect x="20" y="45" width="3" height="3" fill="#cf8efc"/><rect x="23" y="45" width="3" height="3" fill="#cf8efc"/><rect x="26" y="45" width="3" height="3" fill="#cf8efc"/><rect x="29" y="45" width="3" height="3" fill="#cf8efc"/><rect x="32" y="45" width="3" height="3" fill="#cf8efc"/><rect x="35" y="45" width="3" height="3" fill="#cf8efc"/><rect x="38" y="45" width="3" height="3" fill="#cf8efc"/><rect x="41" y="45" width="3" height="3" fill="#cf8efc"/><rect x="44" y="45" width="3" height="3" fill="#cf8efc"/><rect x="47" y="45" width="3" height="3" fill="#cf8efc"/><rect x="50" y="45" width="3" height="3" fill="#cf8efc"/><rect x="53" y="45" width="3" height="3" fill="#cf8efc"/><rect x="56" y="45" width="3" height="3" fill="#cf8efc"/><rect x="59" y="45" width="3" height="3" fill="#cf8efc"/><rect x="29" y="48" width="3" height="3" fill="#cf8efc"/><rect x="32" y="48" width="3" height="3" fill="#cf8efc"/><rect x="35" y="48" width="3" height="3" fill="#cf8efc"/><rect x="38" y="48" width="3" height="3" fill="#cf8efc"/><rect x="41" y="48" width="3" height="3" fill="#cf8efc"/><rect x="44" y="48" width="3" height="3" fill="#cf8efc"/><rect x="47" y="48" width="3" height="3" fill="#cf8efc"/><rect x="50" y="48" width="3" height="3" fill="#cf8efc"/><rect x="38" y="51" width="3" height="3" fill="#cf8efc"/><rect x="41" y="51" width="3" height="3" fill="#cf8efc"/><rect x="38" y="54" width="3" height="3" fill="#cf8efc"/><rect x="41" y="54" width="3" height="3" fill="#cf8efc"/><rect x="35" y="57" width="3" height="3" fill="#cf8efc"/><rect x="38" y="57" width="3" height="3" fill="#cf8efc"/><rect x="41" y="57" width="3" height="3" fill="#cf8efc"/><rect x="44" y="57" width="3" height="3" fill="#cf8efc"/><rect x="32" y="60" width="3" height="3" fill="#cf8efc"/><rect x="35" y="60" width="3" height="3" fill="#cf8efc"/><rect x="38" y="60" width="3" height="3" fill="#cf8efc"/><rect x="41" y="60" width="3" height="3" fill="#cf8efc"/><rect x="44" y="60" width="3" height="3" fill="#cf8efc"/><rect x="47" y="60" width="3" height="3" fill="#cf8efc"/><rect x="38" y="63" width="3" height="3" fill="#cf8efc"/><rect x="41" y="63" width="3" height="3" fill="#cf8efc"/><text x="86" y="53" fill="#cf8efc" font-family="monospace" font-size="14" font-weight="700">02 / FLIGHT DECK</text><text x="86" y="77" fill="#afbdd2" font-family="monospace" font-size="9">AVIATION · EXPLORATION</text><text x="86" y="106" fill="#8093ad" font-family="monospace" font-size="10">OPEN MISSION LOG →</text></svg>